<svg width="42" height="64" viewBox="0 0 42 64" fill="none" xmlns="http://www.w3.org/2000/svg">
<path d="M21.725 53.4752C23.3375 54.9377 25.9375 57.6377 25.875 59.8127C25.875 59.9127 25.8625 60.0127 25.8625 60.1252C25.6375 62.6002 23.5125 64.0126 20.975 64.0002C17.85 63.9877 15.9875 61.9002 16.1375 59.5252C16.2625 57.5002 18.7 54.9377 20.1875 53.5752C20.475 53.3127 20.525 53.2377 20.8875 53.1252C21.3125 53.1252 21.375 53.1627 21.725 53.4752ZM38.4875 8.41265C36.45 5.20015 33.6625 3.33765 30.575 1.90015C27.3875 0.562654 23.75 -0.0248462 21 0.00015379C15.4875 0.00015379 12.1 1.65015 10.8625 2.16265C4.16245 5.65015 0.312454 10.9002 0.499954 19.8252C1.38745 30.1002 12.625 41.8252 19.975 49.0502C20.1875 49.2502 20.5375 49.6127 20.75 49.6877L21.1625 49.7002C21.425 49.6127 21.3875 49.6377 21.6 49.4377C28.1375 43.2877 39.1875 31.2127 41.0875 22.4752C41.9625 17.5752 41.475 13.4127 38.4875 8.41265ZM20.35 43.9877C16.85 37.6002 12.2 27.6502 11.6875 20.3627C11.2625 14.4252 13.1125 3.96265 20.35 3.27515V43.9877ZM38.0875 22.5002C36.0375 29.6002 28.425 38.5002 23.225 43.7877C26.7 37.3002 31.375 27.1252 31.625 19.8002C31.825 14.0627 30.4 6.57515 25.625 3.37515C36.725 5.66265 40.0625 15.6377 38.0875 22.5002Z" fill="#3D3E48"/>
</svg>
