<svg width="38" height="34" viewBox="0 0 38 34" fill="none" xmlns="http://www.w3.org/2000/svg">
<path fill-rule="evenodd" clip-rule="evenodd" d="M12.4826 0.808001C12.7516 0.628801 13.0632 0.523904 13.3858 0.503943C13.7084 0.483981 14.0305 0.549664 14.3196 0.694334L24.5001 5.78367L34.6806 0.694334C34.96 0.554699 35.2705 0.488781 35.5826 0.502837C35.8946 0.516892 36.1979 0.610454 36.4637 0.774645C36.7294 0.938835 36.9488 1.16821 37.1011 1.441C37.2533 1.71379 37.3332 2.02095 37.3334 2.33333V24.3333C37.3335 24.6351 37.259 24.9322 37.1167 25.1983C36.9744 25.4644 36.7686 25.6912 36.5176 25.8587L25.5176 33.192C25.2486 33.3712 24.937 33.4761 24.6144 33.4961C24.2918 33.516 23.9696 33.4503 23.6806 33.3057L13.5001 28.2163L3.31958 33.3057C3.04014 33.4453 2.72966 33.5112 2.41759 33.4972C2.10553 33.4831 1.80222 33.3896 1.53647 33.2254C1.27072 33.0612 1.05132 32.8318 0.899112 32.559C0.746899 32.2862 0.666915 31.9791 0.666748 31.6667V9.66667C0.666703 9.36492 0.741141 9.06782 0.883457 8.80173C1.02577 8.53565 1.23157 8.30881 1.48258 8.14133L12.4826 0.808001ZM6.16675 17C6.16675 17.4862 6.3599 17.9525 6.70372 18.2964C7.04754 18.6402 7.51385 18.8333 8.00008 18.8333C8.48631 18.8333 8.95263 18.6402 9.29644 18.2964C9.64026 17.9525 9.83341 17.4862 9.83341 17C9.83341 16.5138 9.64026 16.0475 9.29644 15.7036C8.95263 15.3598 8.48631 15.1667 8.00008 15.1667C7.51385 15.1667 7.04754 15.3598 6.70372 15.7036C6.3599 16.0475 6.16675 16.5138 6.16675 17V17.0018V17ZM15.3334 18.8333C14.8472 18.8333 14.3809 18.6402 14.0371 18.2964C13.6932 17.9525 13.5001 17.4862 13.5001 17C13.5001 16.5138 13.6932 16.0475 14.0371 15.7036C14.3809 15.3598 14.8472 15.1667 15.3334 15.1667C15.8196 15.1667 16.286 15.3598 16.6298 15.7036C16.9736 16.0475 17.1667 16.5138 17.1667 17V17.0018C17.1667 17.4881 16.9736 17.9544 16.6298 18.2982C16.286 18.642 15.8196 18.8352 15.3334 18.8352V18.8333ZM23.9629 12.0353C23.7938 11.8602 23.5915 11.7206 23.3678 11.6245C23.1441 11.5284 22.9036 11.4778 22.6602 11.4757C22.4167 11.4736 22.1753 11.52 21.95 11.6122C21.7247 11.7043 21.52 11.8405 21.3479 12.0126C21.1757 12.1847 21.0396 12.3894 20.9474 12.6148C20.8552 12.8401 20.8088 13.0815 20.811 13.3249C20.8131 13.5683 20.8636 13.8089 20.9597 14.0326C21.0558 14.2563 21.1955 14.4585 21.3706 14.6277L23.7411 17L21.3706 19.3705C21.0366 19.7163 20.8518 20.1794 20.856 20.6601C20.8602 21.1408 21.053 21.6006 21.3929 21.9405C21.7328 22.2804 22.1927 22.4732 22.6733 22.4774C23.154 22.4816 23.6171 22.2968 23.9629 21.9628L26.3334 19.5923L28.7039 21.9628C29.0497 22.2968 29.5128 22.4816 29.9935 22.4774C30.4742 22.4732 30.934 22.2804 31.2739 21.9405C31.6138 21.6006 31.8066 21.1408 31.8108 20.6601C31.815 20.1794 31.6302 19.7163 31.2963 19.3705L28.9257 17L31.2963 14.6295C31.6302 14.2837 31.815 13.8206 31.8108 13.3399C31.8066 12.8592 31.6138 12.3994 31.2739 12.0595C30.934 11.7196 30.4742 11.5268 29.9935 11.5226C29.5128 11.5184 29.0497 11.7032 28.7039 12.0372L26.3334 14.4077L23.9629 12.0372V12.0353Z" fill="#3D3E48"/>
</svg>
