<svg width="48" height="48" viewBox="0 0 48 48" fill="none" xmlns="http://www.w3.org/2000/svg">
<path d="M5.43197 20.55C5.08993 21.2546 4.91246 22.0278 4.91297 22.811L5.10597 34.936L0.900967 43.96C0.748735 44.2408 0.646862 44.5461 0.599967 44.862C0.545802 45.2167 0.562269 45.5786 0.648423 45.9269C0.734578 46.2752 0.888719 46.6031 1.10199 46.8916C1.31526 47.1801 1.58345 47.4237 1.89115 47.6082C2.19885 47.7928 2.53999 47.9147 2.89497 47.967C3.44796 48.0518 4.01365 47.9642 4.51515 47.7163C5.01665 47.4683 5.42963 47.0719 5.69797 46.581L10.324 36.717C10.42 36.488 10.506 36.247 10.541 35.983L10.566 35.611L10.53 28.115L17.639 31.207L18.787 38.533C18.9062 39.0714 19.186 39.5609 19.5893 39.9369C19.9926 40.3129 20.5006 40.5577 21.046 40.639C21.7617 40.7447 22.4903 40.5641 23.0739 40.1364C23.6576 39.7088 24.0492 39.0684 24.164 38.354C24.199 38.101 24.199 37.848 24.175 37.608L22.774 28.764C22.6898 28.3397 22.5071 27.9411 22.2407 27.6003C21.9742 27.2595 21.6314 26.9861 21.24 26.802L14.886 23.99L18.932 16.976L20.939 19.515C21.144 19.743 21.41 19.936 21.711 20.056L29.359 22.281C29.8536 22.389 30.3706 22.3193 30.819 22.0842C31.2674 21.849 31.6186 21.4634 31.811 20.995C31.9175 20.7333 31.9714 20.4532 31.9696 20.1706C31.9678 19.888 31.9104 19.6086 31.8005 19.3483C31.6906 19.088 31.5305 18.8518 31.3293 18.6534C31.1281 18.455 30.8898 18.2982 30.628 18.192L30.519 18.156L23.874 16.207L18.872 10.228C18.1001 9.40474 17.0757 8.86245 15.961 8.687C14.9984 8.54347 14.0149 8.68453 13.1315 9.09283C12.2481 9.50113 11.5033 10.1588 10.989 10.985L5.43197 20.55ZM27.371 37.934L26.888 41.567L13.732 44.754L13.859 47H45.945C46.2142 47.0012 46.4809 46.9492 46.73 46.8471C46.9791 46.745 47.2056 46.5948 47.3965 46.405C47.5874 46.2152 47.7389 45.9896 47.8425 45.7411C47.9461 45.4927 47.9996 45.2262 48 44.957L47.964 1.888L43.568 0.866L41.042 12.189L36.819 13.957L33.074 24.398L36.632 32.387L35.63 35.454L27.371 37.934ZM18.438 8.157C20.697 8.157 22.533 6.329 22.533 4.079C22.532 1.83 20.697 0 18.438 0C16.179 0 14.342 1.83 14.342 4.079C14.341 6.329 16.178 8.157 18.438 8.157ZM10.289 8.795C10.3652 8.66231 10.4145 8.51584 10.4339 8.36402C10.4533 8.21221 10.4425 8.05805 10.4021 7.91044C10.3616 7.76283 10.2924 7.62468 10.1983 7.50395C10.1042 7.38322 9.98721 7.2823 9.85397 7.207L7.87197 6.052C7.60095 5.8985 7.2804 5.85787 6.97966 5.9389C6.67892 6.01994 6.42217 6.21612 6.26497 6.485L0.152967 16.989C0.0770527 17.1217 0.0280579 17.2681 0.00878603 17.4198C-0.0104858 17.5715 0.000343572 17.7255 0.0406546 17.873C0.0809657 18.0205 0.149967 18.1586 0.24371 18.2794C0.337453 18.4002 0.454097 18.5013 0.586967 18.577L2.58097 19.721C2.8485 19.8756 3.16635 19.918 3.46504 19.8389C3.76374 19.7598 4.01898 19.5657 4.17497 19.299L10.289 8.795Z" fill="#3D3E48"/>
</svg>
