<svg width="44" height="44" viewBox="0 0 44 44" fill="none" xmlns="http://www.w3.org/2000/svg">
<path d="M12 22V16M19 22V16M21 16H10M42 2H26V10H42V2ZM42 10V32C42 33.11 41.11 34 40 34H6C3.79 34 2 32.21 2 30V24C2 19.58 5.58 16 10 16H26V10H42ZM7 42C8.06087 42 9.07828 41.5786 9.82843 40.8284C10.5786 40.0783 11 39.0609 11 38C11 36.9391 10.5786 35.9217 9.82843 35.1716C9.07828 34.4214 8.06087 34 7 34C5.93913 34 4.92172 34.4214 4.17157 35.1716C3.42143 35.9217 3 36.9391 3 38C3 39.0609 3.42143 40.0783 4.17157 40.8284C4.92172 41.5786 5.93913 42 7 42V42ZM17.33 42C18.3909 42 19.4083 41.5786 20.1584 40.8284C20.9086 40.0783 21.33 39.0609 21.33 38C21.33 36.9391 20.9086 35.9217 20.1584 35.1716C19.4083 34.4214 18.3909 34 17.33 34C16.2691 34 15.2517 34.4214 14.5016 35.1716C13.7514 35.9217 13.33 36.9391 13.33 38C13.33 39.0609 13.7514 40.0783 14.5016 40.8284C15.2517 41.5786 16.2691 42 17.33 42ZM27.67 42C28.7309 42 29.7483 41.5786 30.4984 40.8284C31.2486 40.0783 31.67 39.0609 31.67 38C31.67 36.9391 31.2486 35.9217 30.4984 35.1716C29.7483 34.4214 28.7309 34 27.67 34C26.6091 34 25.5917 34.4214 24.8416 35.1716C24.0914 35.9217 23.67 36.9391 23.67 38C23.67 39.0609 24.0914 40.0783 24.8416 40.8284C25.5917 41.5786 26.6091 42 27.67 42ZM38 42C39.0609 42 40.0783 41.5786 40.8284 40.8284C41.5786 40.0783 42 39.0609 42 38C42 36.9391 41.5786 35.9217 40.8284 35.1716C40.0783 34.4214 39.0609 34 38 34C36.9391 34 35.9217 34.4214 35.1716 35.1716C34.4214 35.9217 34 36.9391 34 38C34 39.0609 34.4214 40.0783 35.1716 40.8284C35.9217 41.5786 36.9391 42 38 42V42Z" stroke="#3D3E48" stroke-width="4" stroke-miterlimit="2" stroke-linecap="round" stroke-linejoin="round"/>
</svg>
