<svg width="118" height="118" viewBox="0 0 118 118" fill="none" xmlns="http://www.w3.org/2000/svg">
<path d="M101.336 37.6667H107C109.829 37.6667 112.542 38.7905 114.543 40.7909C116.543 42.7913 117.667 45.5044 117.667 48.3333V69.6667C117.667 72.4957 116.543 75.2088 114.543 77.2091C112.542 79.2095 109.829 80.3333 107 80.3333H101.336C100.036 90.6443 95.0176 100.126 87.2228 107C79.4281 113.874 69.3928 117.667 59.0002 117.667V107C67.4871 107 75.6264 103.629 81.6276 97.6274C87.6288 91.6263 91.0002 83.4869 91.0002 75V43C91.0002 34.5131 87.6288 26.3738 81.6276 20.3726C75.6264 14.3714 67.4871 11 59.0002 11C50.5132 11 42.3739 14.3714 36.3727 20.3726C30.3716 26.3738 27.0002 34.5131 27.0002 43V80.3333H11.0002C8.17119 80.3333 5.45808 79.2095 3.45769 77.2091C1.4573 75.2088 0.333496 72.4957 0.333496 69.6667V48.3333C0.333496 45.5044 1.4573 42.7913 3.45769 40.7909C5.45808 38.7905 8.17119 37.6667 11.0002 37.6667H16.6642C17.9657 27.3568 22.9846 17.8761 30.7792 11.0036C38.5739 4.1311 48.6084 0.339081 59.0002 0.339081C69.3919 0.339081 79.4265 4.1311 87.2211 11.0036C95.0157 17.8761 100.035 27.3568 101.336 37.6667ZM11.0002 48.3333V69.6667H16.3335V48.3333H11.0002ZM101.667 48.3333V69.6667H107V48.3333H101.667ZM36.3868 79.1867L42.0402 70.1413C47.1232 73.3255 53.0021 75.0097 59.0002 75C64.9982 75.0097 70.8771 73.3255 75.9602 70.1413L81.6135 79.1867C74.8362 83.4328 66.9977 85.679 59.0002 85.6667C51.0026 85.679 43.1641 83.4328 36.3868 79.1867Z" fill="#43B97F"/>
</svg>
