<svg width="46" height="48" viewBox="0 0 46 48" fill="none" xmlns="http://www.w3.org/2000/svg">
<path d="M4.21804 12.532C4.58404 12.04 5.06604 11.374 5.45204 10.898C6.60804 9.586 6.75804 9.414 7.81004 8.444C8.12204 8.188 8.49204 7.88 8.85404 7.59C6.18404 9.85 5.84404 12.352 8.29404 13.898C8.29004 13.898 8.29004 13.898 8.29004 13.902C11.716 15.966 19.224 15.52 25.148 12.876C30.886 10.316 33.004 6.654 30.172 4.478C27.686 4.012 24.722 3.958 21.586 4.378L21.26 3.84L21.53 2.948C23.374 2.782 25.126 2.822 26.638 3.08C27.004 3.142 27.486 3.248 27.846 3.324C28.542 3.494 28.92 3.596 29.374 3.742C29.838 3.88 30.234 4.018 30.924 4.274C31.6 4.54 31.892 4.66 32.434 4.93C33.041 5.20693 33.6307 5.52016 34.2 5.868C38.712 8.706 35.906 13.884 27.944 17.432C20.004 20.968 9.88604 21.524 5.35204 18.72C5.35004 18.716 5.34404 18.712 5.33204 18.708H5.34004C2.86404 17.14 2.60404 14.864 4.21804 12.532ZM24.876 32.372L24.812 29.184L22.546 26.664C15.06 28.36 7.70204 27.996 3.61004 25.586C3.59604 25.57 3.56204 25.554 3.54804 25.538C1.23204 24.112 0.660041 22.272 0.834041 20.272C0.292041 23.198 0.248041 24.254 0.326041 26.758C0.422041 28.326 1.32804 29.772 3.15004 30.912L3.16404 30.928C7.52604 33.64 16.614 34.228 24.876 32.372ZM34.326 36.022C23.76 40.26 10.536 40.51 4.79204 36.588C5.41235 38.1039 6.2564 39.5183 7.29604 40.784C12.568 44.384 24.706 44.154 34.4 40.264C40.074 37.99 43.654 34.964 44.594 32.128L44.858 31.274C45.484 29.11 45.602 27.308 45.702 25.704C45.588 29.186 41.486 33.146 34.326 36.022ZM11.002 44.184C11.334 44.5 12.378 45.782 17.668 47.198C19.098 47.514 22.698 48.528 29.348 47.054L29.388 46.448L28.862 45.624C22.692 47.084 15.838 46.596 11.002 44.184ZM26.27 18.966L31.888 23.224C31.888 23.224 33.09 24.09 31.956 24.698C30.826 25.3 27.924 26.774 27.924 26.774L25.058 25.704L23.62 26.344L26.156 28.546L26.176 31.972L27.666 31.31L28.654 28.416C28.654 28.416 31.688 27.248 32.892 26.808C34.102 26.378 33.94 27.85 33.94 27.85L33.344 34.872L35.324 33.992L38.584 24.518C38.584 24.518 40.312 23.678 41.528 22.94C42.742 22.202 43.158 20.978 43.158 20.978C43.158 20.978 41.974 20.468 40.61 20.878C39.246 21.284 37.468 22.008 37.468 22.008L28.244 18.09L26.27 18.966ZM14.384 5.494L18.198 8.532L19.24 8.376L17.164 5.65C17.164 5.65 16.712 5.086 17.32 4.952C17.932 4.816 19.48 4.5 19.48 4.5L20.644 5.43L21.428 5.314L20.54 3.902L21.008 2.336L20.25 2.446L19.352 3.638C19.352 3.638 17.776 3.786 17.156 3.838C16.532 3.886 16.8 3.216 16.8 3.216L17.996 0L16.948 0.154L14.188 4.172C14.188 4.172 13.268 4.34 12.602 4.53C11.934 4.718 11.582 5.234 11.582 5.234C11.582 5.234 12.072 5.63 12.762 5.616C13.458 5.602 14.384 5.494 14.384 5.494ZM33.234 44.53L30.766 43.24L30.198 43.438L31.66 44.746C31.66 44.746 31.972 45.012 31.644 45.154C31.316 45.294 30.48 45.638 30.48 45.638L29.79 45.33L29.38 45.478L29.954 46.09L29.898 46.984L30.326 46.836L30.646 46.11C30.646 46.11 31.514 45.852 31.86 45.76C32.204 45.666 32.126 46.07 32.126 46.07L31.8 48L32.37 47.802L33.488 45.25C33.488 45.25 33.982 45.056 34.336 44.878C34.69 44.7 34.83 44.372 34.83 44.372C34.83 44.372 34.516 44.2 34.128 44.286C33.738 44.368 33.234 44.53 33.234 44.53Z" fill="#3D3E48"/>
</svg>
