<svg width="128" height="173" viewBox="0 0 128 173" fill="none" xmlns="http://www.w3.org/2000/svg">
<path fill-rule="evenodd" clip-rule="evenodd" d="M21.3335 114.667C21.3335 113.959 21.6144 113.281 22.1145 112.781C22.6146 112.281 23.2929 112 24.0002 112H104C104.707 112 105.386 112.281 105.886 112.781C106.386 113.281 106.667 113.959 106.667 114.667C106.667 115.374 106.386 116.052 105.886 116.552C105.386 117.052 104.707 117.333 104 117.333H24.0002C23.2929 117.333 22.6146 117.052 22.1145 116.552C21.6144 116.052 21.3335 115.374 21.3335 114.667Z" fill="#A8A7AB"/>
<path fill-rule="evenodd" clip-rule="evenodd" d="M32.0003 58.6666V112H45.3337V58.6666H32.0003ZM29.3337 53.3333C28.6264 53.3333 27.9481 53.6142 27.448 54.1143C26.9479 54.6144 26.667 55.2927 26.667 55.9999V114.667C26.667 115.374 26.9479 116.052 27.448 116.552C27.9481 117.052 28.6264 117.333 29.3337 117.333H48.0003C48.7076 117.333 49.3858 117.052 49.8859 116.552C50.386 116.052 50.667 115.374 50.667 114.667V55.9999C50.667 55.2927 50.386 54.6144 49.8859 54.1143C49.3858 53.6142 48.7076 53.3333 48.0003 53.3333H29.3337Z" fill="#A8A7AB"/>
<path fill-rule="evenodd" clip-rule="evenodd" d="M45.3335 10.6666L88.0002 26.6666V64H82.6668V30.3626L50.6668 18.3626V112H72.0002C72.0002 112.707 72.2811 113.385 72.7812 113.886C73.2813 114.386 73.9596 114.667 74.6668 114.667H88.0002V117.333H45.3335V10.6666Z" fill="#A8A7AB"/>
<path d="M53.3335 34.6666H58.6668V40H53.3335V34.6666ZM64.0002 34.6666H69.3335V40H64.0002V34.6666ZM74.6668 34.6666H80.0002V40H74.6668V34.6666ZM53.3335 45.3333H58.6668V50.6666H53.3335V45.3333ZM64.0002 45.3333H69.3335V50.6666H64.0002V45.3333ZM74.6668 45.3333H80.0002V50.6666H74.6668V45.3333ZM53.3335 56H58.6668V61.3333H53.3335V56ZM64.0002 56H69.3335V61.3333H64.0002V56ZM74.6668 56H80.0002V61.3333H74.6668V56ZM53.3335 66.6666H58.6668V72H53.3335V66.6666ZM64.0002 66.6666H69.3335V72H64.0002V66.6666ZM53.3335 77.3333H58.6668V82.6666H53.3335V77.3333ZM64.0002 77.3333H69.3335V82.6666H64.0002V77.3333ZM53.3335 88H58.6668V93.3333H53.3335V88ZM64.0002 88H69.3335V93.3333H64.0002V88ZM53.3335 98.6666H58.6668V104H53.3335V98.6666ZM64.0002 98.6666H69.3335V104H64.0002V98.6666Z" fill="#A8A7AB"/>
<path fill-rule="evenodd" clip-rule="evenodd" d="M77.3333 69.3333V112H96V69.3333H77.3333ZM74.6667 64C73.9594 64 73.2811 64.2809 72.781 64.781C72.2809 65.2811 72 65.9594 72 66.6667V114.667C72 115.374 72.2809 116.052 72.781 116.552C73.2811 117.052 73.9594 117.333 74.6667 117.333H98.6667C99.3739 117.333 100.052 117.052 100.552 116.552C101.052 116.052 101.333 115.374 101.333 114.667V66.6667C101.333 65.9594 101.052 65.2811 100.552 64.781C100.052 64.2809 99.3739 64 98.6667 64H74.6667Z" fill="#A8A7AB"/>
<path fill-rule="evenodd" clip-rule="evenodd" d="M90.667 80H82.667V74.6666H90.667V80ZM90.667 90.6666H82.667V85.3333H90.667V90.6666ZM90.667 101.333H82.667V96H90.667V101.333ZM90.667 112H82.667V106.667H90.667V112ZM40.0003 34.6666V58.6666H34.667V34.6666H40.0003Z" fill="#A8A7AB"/>
<path d="M16.8256 155.299C16.8256 153.994 17.12 152.822 17.7088 151.786C18.2976 150.736 19.0976 149.917 20.1088 149.328C21.1328 148.739 22.2656 148.445 23.5072 148.445C24.9664 148.445 26.24 148.797 27.328 149.501C28.416 150.205 29.2096 151.203 29.7088 152.496H27.616C27.2448 151.69 26.7072 151.069 26.0032 150.634C25.312 150.198 24.48 149.981 23.5072 149.981C22.5728 149.981 21.7344 150.198 20.992 150.634C20.2496 151.069 19.6672 151.69 19.2448 152.496C18.8224 153.29 18.6112 154.224 18.6112 155.299C18.6112 156.362 18.8224 157.296 19.2448 158.102C19.6672 158.896 20.2496 159.51 20.992 159.946C21.7344 160.381 22.5728 160.598 23.5072 160.598C24.48 160.598 25.312 160.387 26.0032 159.965C26.7072 159.53 27.2448 158.909 27.616 158.102H29.7088C29.2096 159.382 28.416 160.374 27.328 161.078C26.24 161.77 24.9664 162.115 23.5072 162.115C22.2656 162.115 21.1328 161.827 20.1088 161.251C19.0976 160.662 18.2976 159.85 17.7088 158.813C17.12 157.776 16.8256 156.605 16.8256 155.299ZM34.0569 148.618V162H32.3097V148.618H34.0569ZM45.2715 148.618V150.038H41.6235V162H39.8763V150.038H36.2091V148.618H45.2715ZM56.7918 148.618L52.4334 156.95V162H50.6862V156.95L46.3086 148.618H48.2478L51.5502 155.395L54.8526 148.618H56.7918ZM71.9902 148.618V150.038H68.3422V162H66.595V150.038H62.9278V148.618H71.9902ZM80.2081 162.134C78.9665 162.134 77.8337 161.846 76.8097 161.27C75.7857 160.682 74.9729 159.869 74.3713 158.832C73.7825 157.782 73.4881 156.605 73.4881 155.299C73.4881 153.994 73.7825 152.822 74.3713 151.786C74.9729 150.736 75.7857 149.923 76.8097 149.347C77.8337 148.758 78.9665 148.464 80.2081 148.464C81.4625 148.464 82.6017 148.758 83.6257 149.347C84.6497 149.923 85.4561 150.73 86.0449 151.766C86.6337 152.803 86.9281 153.981 86.9281 155.299C86.9281 156.618 86.6337 157.795 86.0449 158.832C85.4561 159.869 84.6497 160.682 83.6257 161.27C82.6017 161.846 81.4625 162.134 80.2081 162.134ZM80.2081 160.618C81.1425 160.618 81.9809 160.4 82.7233 159.965C83.4785 159.53 84.0673 158.909 84.4897 158.102C84.9249 157.296 85.1425 156.362 85.1425 155.299C85.1425 154.224 84.9249 153.29 84.4897 152.496C84.0673 151.69 83.4849 151.069 82.7425 150.634C82.0001 150.198 81.1553 149.981 80.2081 149.981C79.2609 149.981 78.4161 150.198 77.6737 150.634C76.9313 151.069 76.3425 151.69 75.9073 152.496C75.4849 153.29 75.2737 154.224 75.2737 155.299C75.2737 156.362 75.4849 157.296 75.9073 158.102C76.3425 158.909 76.9313 159.53 77.6737 159.965C78.4289 160.4 79.2737 160.618 80.2081 160.618ZM90.9435 148.618V157.085C90.9435 158.275 91.2315 159.158 91.8075 159.734C92.3963 160.31 93.2091 160.598 94.2459 160.598C95.2699 160.598 96.0699 160.31 96.6459 159.734C97.2347 159.158 97.5291 158.275 97.5291 157.085V148.618H99.2763V157.066C99.2763 158.179 99.0523 159.12 98.6043 159.888C98.1563 160.643 97.5483 161.206 96.7803 161.578C96.0251 161.949 95.1739 162.134 94.2267 162.134C93.2795 162.134 92.4219 161.949 91.6539 161.578C90.8987 161.206 90.2971 160.643 89.8491 159.888C89.4139 159.12 89.1963 158.179 89.1963 157.066V148.618H90.9435ZM109.237 162L106.05 156.528H103.938V162H102.191V148.618H106.511C107.522 148.618 108.373 148.79 109.065 149.136C109.769 149.482 110.293 149.949 110.639 150.538C110.985 151.126 111.157 151.798 111.157 152.554C111.157 153.475 110.889 154.288 110.351 154.992C109.826 155.696 109.033 156.163 107.97 156.394L111.33 162H109.237ZM103.938 155.126H106.511C107.458 155.126 108.169 154.896 108.642 154.435C109.116 153.962 109.353 153.334 109.353 152.554C109.353 151.76 109.116 151.146 108.642 150.71C108.181 150.275 107.471 150.058 106.511 150.058H103.938V155.126Z" fill="#A8A7AB"/>
</svg>
