<svg width="120" height="120" viewBox="0 0 120 120" fill="none" xmlns="http://www.w3.org/2000/svg">
<path d="M109.122 99.526C109.362 93.356 111.12 90.524 113.776 86.234L114.416 85.2C119.358 77.16 121.032 70.888 119.388 66.55C118.26 63.564 115.982 62.572 115.352 62.348C112.316 61.04 107.796 60.344 102.274 60.344C99.856 60.344 96.146 60.5 91.384 61.148V49.53H84.086V44.182H68.074L62.52 32.982C62.302 32.888 62.074 32.82 61.852 32.736C61.7389 31.6615 61.3555 30.6332 60.7375 29.747C60.1196 28.8608 59.2872 28.1455 58.318 27.668C58.2452 25.7485 57.6243 23.89 56.5288 22.3122C55.4333 20.7343 53.909 19.5031 52.136 18.764C51.2951 16.5574 49.8037 14.6583 47.8593 13.3182C45.915 11.9782 43.6094 11.2604 41.248 11.26C40.364 11.26 39.486 11.364 38.628 11.564C37.4177 10.2421 35.955 9.17592 34.3262 8.42815C32.6974 7.68038 30.9354 7.2662 29.144 7.21C26.374 2.782 21.478 0 16.212 0C7.784 0 0.926 6.912 0.926 15.408C0.926 23.9 7.782 30.812 16.212 30.812C17.2367 30.8112 18.2586 30.706 19.262 30.498C20.5032 31.744 21.9789 32.7318 23.604 33.4043C25.2291 34.0768 26.9713 34.4206 28.73 34.416C30.8574 34.4188 32.9546 33.912 34.846 32.938C36.722 34.178 38.906 34.854 41.182 34.868C42.4978 36.2836 44.2013 37.2804 46.08 37.734L45.276 44.188H37.76L28.84 47.248V52.988L23.366 55.502V65.872H28.732V70.322L16.214 76.628V88.908C8.428 91.128 3.556 91.806 3.458 91.818L1.852 92.03V99.536H0V120H118.154V99.534H109.12L109.122 99.526ZM42.42 31.958C42.034 32.01 41.65 32.078 41.25 32.078C38.9307 32.0758 36.7044 31.1655 35.048 29.542C33.2188 30.8939 31.0046 31.6242 28.73 31.626C27.0749 31.6244 25.4429 31.2381 23.9629 30.4973C22.4828 29.7566 21.1953 28.6819 20.202 27.358C18.9172 27.7957 17.5693 28.02 16.212 28.022C9.298 28.022 3.696 22.376 3.696 15.408C3.696 8.438 9.298 2.79 16.212 2.79C21.232 2.79 25.548 5.772 27.544 10.07C29.5047 9.85218 31.4874 10.1807 33.273 11.0194C35.0586 11.858 36.5776 13.174 37.662 14.822C38.7908 14.3168 40.0133 14.0552 41.25 14.054C45.476 14.054 48.994 17.016 49.93 20.988C51.5289 21.344 52.9582 22.2353 53.9814 23.5145C55.0045 24.7937 55.56 26.384 55.556 28.022C55.556 28.658 55.45 29.262 55.294 29.85C55.384 29.844 55.468 29.824 55.556 29.824C56.978 29.824 58.192 30.666 58.77 31.874C57.7102 31.6743 56.6344 31.5719 55.556 31.568C52.728 31.568 48.994 32.25 46.614 33.432L46.426 34.942C44.7769 34.4582 43.3557 33.3996 42.42 31.958ZM32.308 51.392H89.538V61.428C88.0533 61.6534 86.5742 61.9142 85.102 62.21H32.308V51.392ZM62.776 68.954C57.6768 71.0091 52.6976 73.3501 47.862 75.966C44.5251 77.7636 41.1271 79.4452 37.674 81.008V64.07H77.248C74.7153 64.7589 72.2048 65.5266 69.72 66.372C69.6448 66.2388 69.5359 66.1278 69.4043 66.0498C69.2727 65.9719 69.1229 65.9299 68.97 65.928H63.604C63.4862 65.9285 63.3696 65.9523 63.261 65.9979C63.1523 66.0436 63.0537 66.1102 62.9709 66.194C62.888 66.2777 62.8225 66.3771 62.7781 66.4862C62.7337 66.5953 62.7112 66.7122 62.712 66.83V68.632C62.712 68.746 62.736 68.854 62.776 68.954ZM30.52 76.522C30.52 76.026 30.888 75.452 31.33 75.238L35.076 73.478C35.522 73.266 35.884 73.5 35.884 73.996V78.082C35.8719 78.3425 35.7872 78.5944 35.6395 78.8093C35.4918 79.0242 35.2869 79.1935 35.048 79.298L31.358 80.686C30.896 80.86 30.518 80.596 30.518 80.1V76.522H30.52ZM24.26 79.464C24.26 78.968 24.628 78.39 25.072 78.18L27.924 76.84C28.368 76.63 28.732 76.864 28.732 77.36V80.772C28.7202 81.0325 28.6356 81.2846 28.4878 81.4995C28.34 81.7144 28.135 81.8836 27.896 81.988L25.102 83.04C24.642 83.212 24.262 82.948 24.262 82.452V79.464H24.26ZM18 82.404C18 81.908 18.368 81.334 18.812 81.124L21.664 79.782C22.108 79.572 22.472 79.806 22.472 80.302V83.13C22.4599 83.3905 22.3752 83.6424 22.2275 83.8573C22.0798 84.0722 21.8749 84.2415 21.636 84.346L18.842 85.396C18.382 85.568 18.002 85.306 18.002 84.81V82.404H18ZM5.542 95.252C10.85 94.336 28.482 90.648 49.604 79.246C74.968 65.546 94.888 64.068 102.276 64.068C107.268 64.068 111.416 64.682 113.956 65.796L114.17 65.872C114.18 65.876 115.35 66.312 115.94 67.874C116.132 68.378 116.288 69.098 116.296 70.062C115.25 69.1626 114.069 68.4343 112.796 67.904C101.72 64.778 76.394 67.05 48.312 82.216C28.228 93.06 11.04 95.632 5.542 96.206V95.252ZM105.168 108.266C98.792 109.534 72.636 114.416 48.656 114.416C35.868 114.416 25.682 113.042 18.374 110.336C15.562 109.294 11.206 107.256 5.542 101.568V98.01C11.116 97.44 28.706 94.848 49.154 83.806C76.392 69.098 101.526 66.706 112.142 69.582C113.27 70.04 114.88 70.912 116.064 72.35C115.588 74.85 114.274 78.366 111.274 83.242L110.646 84.264C107.888 88.71 105.71 92.224 105.434 99.356C105.278 102.324 105.189 105.294 105.168 108.266Z" fill="#A8A7AB"/>
</svg>
