<svg width="46" height="46" viewBox="0 0 46 46" fill="none" xmlns="http://www.w3.org/2000/svg">
<path d="M40.9318 0.5L29.7035 6.3125L19.2972 1.8125L5.06825 2.75L0.5 42.6875L15.2113 41.4372L31.5395 45.5L45.5 40.4375L40.9318 0.5ZM39.689 2.83175L43.8755 39.431L31.8275 43.7998L31.7607 42.3942L42.389 38.3817L38.7575 4.937L30.1737 9.008L30.1152 7.7885L30.3935 7.64525L39.689 2.83175ZM30.9613 25.5868C31.1278 25.2328 31.2913 24.7355 31.3693 24.038C31.3693 24.038 32.1958 24.0785 33.2127 26.2948C33.2127 26.2948 33.6567 26.2505 33.4355 24.8037C33.4355 24.8037 35.0233 24.164 34.1667 21.3507C34.1667 21.3507 35.4987 23.1852 35.0563 20.8002C35.0563 20.8002 36.5173 19.0093 34.772 17.8182C34.772 17.8182 34.832 16.4975 35.8812 16.667C35.8812 16.667 36.9297 13.94 36.4242 17.1777C36.4242 17.1777 36.4543 17.8183 37.121 18.5405C37.121 18.5405 37.4083 17.4762 36.899 16.3287C36.899 16.3287 37.9482 14.3653 37.8522 12.6635C37.8522 12.6635 34.4533 13.9242 30.671 13.5477C30.671 13.5477 30.8555 12.8442 30.3387 12.449L30.233 10.2253L30.323 10.1825L37.811 6.632L41.177 37.6377L31.7052 41.2145L30.9613 25.5868ZM29.5828 12.3912C29.192 12.9485 28.1075 14.6622 28.7668 15.6882C28.7668 15.6882 28.4472 17.9105 28.0017 14.669C28.0017 14.669 27.2735 16.5823 26.288 16.1555C26.288 16.1555 26.0173 18.092 25.397 16.7945C25.397 16.7945 25.9047 17.0082 26.0165 16.412C26.0165 16.412 24.5847 14.8783 23.729 17.1973C23.729 17.1973 23.03 17.4755 23.3008 18.563C23.3008 18.563 23.7913 17.666 24.0462 19.0317C24.0462 19.0317 24.317 18.8188 24.4303 17.0705C24.4303 17.0705 25.1097 16.7315 24.5847 18.113C24.5847 18.113 26.1418 18.1378 23.729 19.5185C23.729 19.5185 23.5955 19.496 23.4905 18.9665C23.4905 18.9665 23.1252 20.2415 22.3768 20.6937C22.3768 20.6937 22.5522 21.203 21.9972 21.437C21.9972 21.437 21.6965 22.226 22.412 22.226C22.412 22.226 23.0308 20.33 24.2068 21.8218C24.2068 21.8218 24.431 21.737 24.0808 20.9907C24.0808 20.9907 24.6987 21.2278 24.938 22.205C24.938 22.205 25.3197 22.139 25.3805 21.2892C25.3805 21.2892 25.8598 20.2032 26.639 21.482C26.639 21.482 25.6048 21.1828 25.3363 22.226C25.3363 22.226 25.8253 22.0123 26.1297 22.3115C26.1297 22.3115 26.1605 22.7983 25.8485 22.9865C25.9835 23.24 26.1297 23.483 26.3337 23.6885C26.3906 23.7414 26.4274 23.8124 26.4379 23.8893C26.4484 23.9663 26.432 24.0445 26.3915 24.1107C26.942 25.0527 27.959 26.3068 28.6707 24.305C28.6707 24.305 27.7183 24.8458 27.3995 23.354C27.3995 23.354 29.3218 23.5985 30.2083 25.5267L30.9545 41.2378L16.0055 37.0452L16.2297 34.8275C16.5402 35.6232 16.904 35.9465 16.904 35.9465C16.4817 32.4853 18.9792 30.2675 18.9792 30.2675C19.4645 27.8915 18.2307 26.825 17.087 26.345L17.6742 20.534C17.9097 20.2407 18.0485 20.045 18.0485 20.045C17.9638 19.7533 17.8813 19.4975 17.8025 19.2635L18.3717 13.625C18.8503 14.2078 18.905 14.7373 18.7708 15.2188C18.155 17.4335 18.947 18.1122 18.947 18.1122C19.4277 16.2417 21.0778 15.9432 21.0778 15.9432C20.9832 14.1943 21.9988 12.206 21.9988 12.206C20.894 10.3077 19.3138 11.588 18.4858 12.494L18.5502 11.8573C18.7197 11.639 18.8967 11.4012 19.088 11.1298C19.088 11.1298 18.9298 11.021 18.6425 10.9415L19.1465 5.95025L29.4095 10.2043L29.4815 10.2343L29.5828 12.3912ZM17.8962 10.865C17.3848 10.889 16.73 11.0653 15.9598 11.5978C15.9598 11.5978 15.5938 14.9592 17.6952 12.8525L17.4605 15.1782C17.186 14.2602 16.535 13.9408 16.535 13.9408C15.8975 14.3263 15.9613 14.8363 15.9613 14.8363C16.5395 14.9233 16.8927 15.6192 17.1005 16.2717C16.9835 16.451 16.7833 16.6558 16.4375 16.6895C16.4375 16.6895 16.8403 17.2948 17.2302 17.4642L17.1875 17.8812C16.28 16.5215 15.887 19.2537 15.887 19.2537C13.6438 16.754 16.4825 15.503 16.4825 15.503C14.7448 14.7688 13.94 12.6642 13.94 12.6642C13.8553 13.9715 13.346 13.9137 13.346 13.9137C9.3635 11.5858 8.6465 15.335 8.6465 15.335C9.27875 17.321 7.9235 17.5483 7.9235 17.5483C9.236 17.7747 9.91325 15.9575 9.91325 15.9575C12.6267 17.321 11.186 22.2057 11.186 22.2057C12.2442 22.8283 12.5413 24.875 12.5413 24.875C13.2785 25.0985 14.0337 25.55 14.5632 25.9077C14.666 25.8155 14.7718 25.7278 14.8827 25.646C13.6453 24.7715 13.643 23.3555 13.643 23.3555C14.7657 23.3555 15.9597 22.388 16.8215 21.4985L16.3565 26.1057C16.1472 26.0531 15.9351 26.0123 15.7213 25.9835C15.5213 26.0794 15.3335 26.1987 15.1617 26.339L15.2533 26.4103C14.0052 28.808 15.6927 29.7695 15.9725 29.9082L15.2562 36.9958L5.32925 37.772L8.6405 6.4115L18.404 5.837L17.8962 10.865ZM15.8907 38.1823L31.01 42.4227L31.0775 43.8395L15.7055 40.0145L15.8907 38.1823ZM29.3645 7.8005L29.4215 8.993L19.265 4.78325L19.3955 3.48875L29.108 7.6895L29.3645 7.8005ZM6.41675 4.1645L18.6545 3.35825L18.5187 4.70375L7.622 5.34425L4.06925 38.9997L15.143 38.132L14.9585 39.953L2.19875 41.0382L6.41675 4.1645Z" fill="#3D3E48"/>
</svg>
