<svg width="151" height="173" viewBox="0 0 151 173" fill="none" xmlns="http://www.w3.org/2000/svg">
<g clip-path="url(#clip0_30_494)">
<path fill-rule="evenodd" clip-rule="evenodd" d="M118.39 0C109.583 0 102.136 6.0608 99.9846 14.1978L97.6154 13.097C97.1927 12.9005 96.7323 12.7987 96.2662 12.7987C95.8002 12.7987 95.3397 12.9005 94.9171 13.097L55.7325 31.2998L16.5478 13.0982C16.0603 12.8718 15.5235 12.7719 14.9871 12.8076C14.4507 12.8434 13.932 13.0137 13.4788 13.3029C13.0256 13.592 12.6525 13.9907 12.3941 14.4621C12.1356 14.9335 12.0001 15.4624 12 16V105.967C11.9999 106.577 12.1741 107.175 12.5023 107.689C12.8304 108.204 13.2988 108.613 13.8522 108.87L54.3846 127.698C54.8073 127.894 55.2677 127.996 55.7338 127.996C56.1998 127.996 56.6603 127.894 57.0829 127.698L96.2675 109.496L135.452 127.698C137.573 128.682 140 127.135 140 124.797V34.8301C140 34.22 139.826 33.6225 139.498 33.1082C139.17 32.5938 138.701 32.184 138.148 31.927L134.013 30.0045L135.308 27.8003C135.602 27.2666 135.836 26.6982 136.037 26.1171C136.964 23.858 137.441 21.4396 137.44 18.9978C137.44 8.5568 128.861 0 118.39 0ZM118.39 8.89984C124.028 8.89984 128.512 13.3747 128.512 18.9978C128.512 24.6195 124.028 29.0906 118.39 29.0906C112.751 29.0906 108.268 24.6195 108.268 18.9978C108.268 13.3747 112.751 8.89984 118.39 8.89984ZM97.6973 20.192L99.4598 21.0125C99.8037 24.2109 100.96 27.2681 102.82 29.8931L116.065 52.7923C117.921 55.2166 119.155 54.7558 120.698 52.6643L130.755 35.5469L133.6 36.8704V119.782L98.1722 103.325L97.8829 52.5402C98.4051 52.6528 98.9261 52.7616 99.4496 52.8858L100.627 47.9053C99.7058 47.6874 98.7806 47.4856 97.8522 47.2998L97.6986 20.192H97.6973ZM93.8598 20.6451L94.007 46.6752C92.6851 46.4938 91.3555 46.3738 90.0224 46.3155L89.833 51.4304C91.2256 51.4816 92.6298 51.6326 94.0378 51.8374L94.3322 103.337L57.6269 120.39L57.1546 37.6973L93.8598 20.6464V20.6451ZM18.4 21.015L53.312 37.2326L53.7869 120.365L18.4 103.924V21.015ZM84.375 46.665C82.6125 46.9811 80.809 47.5456 79.1296 48.5222C77.1207 49.6854 75.4687 51.3764 74.3526 53.4118L78.8352 55.8848C79.5031 54.6689 80.4876 53.6564 81.6845 52.9549L81.6922 52.9498L81.6998 52.9446C82.7328 52.343 83.9629 51.9386 85.28 51.703L84.375 46.665ZM105.708 49.2646L104.257 54.1722C107.461 55.1194 110.634 56.2074 113.789 57.385L115.58 52.5875C112.339 51.3792 109.052 50.2528 105.708 49.2646ZM72.425 58.9875L72.3866 59.1898L72.3827 59.2077C71.744 62.8314 71.8118 66.3974 71.9552 69.7869L77.0701 69.5693C76.9306 66.281 76.9011 63.0989 77.4246 60.1126L77.4554 59.9526L72.425 58.9875ZM77.3747 74.6163L72.2675 74.9619C72.4979 78.3782 72.7437 81.7267 72.7347 85.0099L77.8547 85.0227C77.865 81.4771 77.6051 78.0109 77.3747 74.6163ZM72.48 89.8355C72.3392 91.0554 72.1293 92.2419 71.8221 93.3811L71.8195 93.3875L71.817 93.3978C71.369 95.1066 70.615 96.6886 69.5629 97.9277L73.463 101.243C75.1117 99.3037 76.1574 97.0214 76.7654 94.7123L76.768 94.7046C77.152 93.2762 77.4016 91.8374 77.5654 90.4166L72.48 89.8355ZM29.257 94.825L26.9581 99.3997C30.1325 100.996 33.4157 102.316 36.7219 103.457L38.3923 98.6176C35.2499 97.5334 32.1818 96.2944 29.257 94.825ZM43.127 100.09L41.7651 105.025C45.152 105.961 48.6336 106.705 52.192 107.105L52.7629 102.017C49.536 101.655 46.3181 100.972 43.127 100.09ZM66.3475 100.451C63.7978 101.756 60.7194 102.239 57.5539 102.277L57.6179 107.397C61.2454 107.354 65.1238 106.829 68.6797 105.007L66.3475 100.451Z" fill="#A8A7AB"/>
</g>
<path d="M3.2256 150.038V154.512H8.1024V155.952H3.2256V160.56H8.6784V162H1.4784V148.598H8.6784V150.038H3.2256ZM16.7942 155.318L20.903 162H18.9254L15.719 156.778L12.6662 162H10.727L14.8166 155.318L10.7078 148.618H12.6662L15.8918 153.859L18.9638 148.618H20.9222L16.7942 155.318ZM32.1944 152.534C32.1944 153.648 31.8104 154.576 31.0423 155.318C30.2871 156.048 29.1287 156.413 27.5671 156.413H24.9943V162H23.2471V148.618H27.5671C29.0775 148.618 30.2232 148.982 31.004 149.712C31.7976 150.442 32.1944 151.382 32.1944 152.534ZM27.5671 154.973C28.5399 154.973 29.2568 154.762 29.7176 154.339C30.1784 153.917 30.4087 153.315 30.4087 152.534C30.4087 150.883 29.4615 150.058 27.5671 150.058H24.9943V154.973H27.5671ZM36.1131 160.579H40.7979V162H34.3659V148.618H36.1131V160.579ZM48.7206 162.134C47.479 162.134 46.3462 161.846 45.3222 161.27C44.2982 160.682 43.4854 159.869 42.8838 158.832C42.295 157.782 42.0006 156.605 42.0006 155.299C42.0006 153.994 42.295 152.822 42.8838 151.786C43.4854 150.736 44.2982 149.923 45.3222 149.347C46.3462 148.758 47.479 148.464 48.7206 148.464C49.975 148.464 51.1142 148.758 52.1382 149.347C53.1622 149.923 53.9686 150.73 54.5574 151.766C55.1462 152.803 55.4406 153.981 55.4406 155.299C55.4406 156.618 55.1462 157.795 54.5574 158.832C53.9686 159.869 53.1622 160.682 52.1382 161.27C51.1142 161.846 49.975 162.134 48.7206 162.134ZM48.7206 160.618C49.655 160.618 50.4934 160.4 51.2358 159.965C51.991 159.53 52.5798 158.909 53.0022 158.102C53.4374 157.296 53.655 156.362 53.655 155.299C53.655 154.224 53.4374 153.29 53.0022 152.496C52.5798 151.69 51.9974 151.069 51.255 150.634C50.5126 150.198 49.6678 149.981 48.7206 149.981C47.7734 149.981 46.9286 150.198 46.1862 150.634C45.4438 151.069 44.855 151.69 44.4198 152.496C43.9974 153.29 43.7862 154.224 43.7862 155.299C43.7862 156.362 43.9974 157.296 44.4198 158.102C44.855 158.909 45.4438 159.53 46.1862 159.965C46.9414 160.4 47.7862 160.618 48.7206 160.618ZM64.7936 162L61.6064 156.528H59.4944V162H57.7472V148.618H62.0672C63.0784 148.618 63.9296 148.79 64.6208 149.136C65.3248 149.482 65.8496 149.949 66.1952 150.538C66.5408 151.126 66.7136 151.798 66.7136 152.554C66.7136 153.475 66.4448 154.288 65.9072 154.992C65.3824 155.696 64.5888 156.163 63.5264 156.394L66.8864 162H64.7936ZM59.4944 155.126H62.0672C63.0144 155.126 63.7248 154.896 64.1984 154.435C64.672 153.962 64.9088 153.334 64.9088 152.554C64.9088 151.76 64.672 151.146 64.1984 150.71C63.7376 150.275 63.0272 150.058 62.0672 150.058H59.4944V155.126ZM71.1756 150.038V154.512H76.0524V155.952H71.1756V160.56H76.6284V162H69.4284V148.598H76.6284V150.038H71.1756ZM101.21 148.618L97.3317 162H95.3733L92.2629 151.229L89.0373 162L87.0981 162.019L83.3541 148.618H85.2165L88.1349 159.965L91.3605 148.618H93.3189L96.3909 159.926L99.3285 148.618H101.21ZM109.189 162.134C107.948 162.134 106.815 161.846 105.791 161.27C104.767 160.682 103.954 159.869 103.353 158.832C102.764 157.782 102.469 156.605 102.469 155.299C102.469 153.994 102.764 152.822 103.353 151.786C103.954 150.736 104.767 149.923 105.791 149.347C106.815 148.758 107.948 148.464 109.189 148.464C110.444 148.464 111.583 148.758 112.607 149.347C113.631 149.923 114.437 150.73 115.026 151.766C115.615 152.803 115.909 153.981 115.909 155.299C115.909 156.618 115.615 157.795 115.026 158.832C114.437 159.869 113.631 160.682 112.607 161.27C111.583 161.846 110.444 162.134 109.189 162.134ZM109.189 160.618C110.124 160.618 110.962 160.4 111.705 159.965C112.46 159.53 113.049 158.909 113.471 158.102C113.906 157.296 114.124 156.362 114.124 155.299C114.124 154.224 113.906 153.29 113.471 152.496C113.049 151.69 112.466 151.069 111.724 150.634C110.981 150.198 110.137 149.981 109.189 149.981C108.242 149.981 107.397 150.198 106.655 150.634C105.913 151.069 105.324 151.69 104.889 152.496C104.466 153.29 104.255 154.224 104.255 155.299C104.255 156.362 104.466 157.296 104.889 158.102C105.324 158.909 105.913 159.53 106.655 159.965C107.41 160.4 108.255 160.618 109.189 160.618ZM125.262 162L122.075 156.528H119.963V162H118.216V148.618H122.536C123.547 148.618 124.398 148.79 125.09 149.136C125.794 149.482 126.318 149.949 126.664 150.538C127.01 151.126 127.182 151.798 127.182 152.554C127.182 153.475 126.914 154.288 126.376 154.992C125.851 155.696 125.058 156.163 123.995 156.394L127.355 162H125.262ZM119.963 155.126H122.536C123.483 155.126 124.194 154.896 124.667 154.435C125.141 153.962 125.378 153.334 125.378 152.554C125.378 151.76 125.141 151.146 124.667 150.71C124.206 150.275 123.496 150.058 122.536 150.058H119.963V155.126ZM131.644 160.579H136.329V162H129.897V148.618H131.644V160.579ZM142.351 148.618C143.81 148.618 145.071 148.893 146.133 149.443C147.209 149.981 148.028 150.755 148.591 151.766C149.167 152.778 149.455 153.968 149.455 155.338C149.455 156.707 149.167 157.898 148.591 158.909C148.028 159.907 147.209 160.675 146.133 161.213C145.071 161.738 143.81 162 142.351 162H138.185V148.618H142.351ZM142.351 160.56C144.079 160.56 145.397 160.106 146.306 159.197C147.215 158.275 147.669 156.989 147.669 155.338C147.669 153.674 147.209 152.374 146.287 151.44C145.378 150.506 144.066 150.038 142.351 150.038H139.932V160.56H142.351Z" fill="#A8A7AB"/>
<defs>
<clipPath id="clip0_30_494">
<rect width="128" height="128" fill="white" transform="translate(12)"/>
</clipPath>
</defs>
</svg>
